<svg width="200" height="200" viewBox="0 0 200 200" fill="none" xmlns="http://www.w3.org/2000/svg">
  <rect width="200" height="200" rx="30" fill="#EDF2FF"/>
  <path d="M54 51C54 44.3726 59.3726 39 66 39H134C140.627 39 146 44.3726 146 51V149C146 155.627 140.627 161 134 161H66C59.3726 161 54 155.627 54 149V51Z" fill="#4C6EF5"/>
  <path d="M75 85C75 80.5817 78.5817 77 83 77H117C121.418 77 125 80.5817 125 85V119C125 123.418 121.418 127 117 127H83C78.5817 127 75 123.418 75 119V85Z" fill="white"/>
  <path d="M100 33L123.301 73H76.6987L100 33Z" fill="#4C6EF5"/>
  <path fill-rule="evenodd" clip-rule="evenodd" d="M100 180C113.807 180 125 168.807 125 155C125 141.193 113.807 130 100 130C86.1929 130 75 141.193 75 155C75 168.807 86.1929 180 100 180ZM100 170C108.284 170 115 163.284 115 155C115 146.716 108.284 140 100 140C91.7157 140 85 146.716 85 155C85 163.284 91.7157 170 100 170Z" fill="#4C6EF5"/>
</svg> 